<svg xmlns="http://www.w3.org/2000/svg" viewBox="0 0 22.24 21.58"><defs><style>.cls-1{fill:#254074;fill-rule:evenodd;}</style></defs><g id="Layer_2" data-name="Layer 2"><g id="Layer_1-2" data-name="Layer 1"><path class="cls-1" d="M11.38.08a.21.21,0,0,1,.15,0c.29,0,.37.39.48.91a7,7,0,0,0,.67,2.1,12.8,12.8,0,0,0,2.06,2.17c1.68,1.47,2.76,2.43,1.09,6.27-.78,1.81-3.18,4.78-1.53,6.06a16.16,16.16,0,0,1,3.32-.67c1.44-.1,4.62.33,4.62,2.32,0,1.28-1.75,2-2.79,2.2-2.41.53-5.34-.21-7.64-.95l-.68-.21a18.9,18.9,0,0,1-6.71,1.33c-1.26,0-4.9-.67-4.37-2.7S3.79,16.74,5.4,17a19.33,19.33,0,0,1,2.82.66,2.35,2.35,0,0,0,.71-1c.55-1.68-.78-3.28-1.5-4.74-1.71-3.46-1-4.24.55-6a21.46,21.46,0,0,0,2.27-3,3.72,3.72,0,0,0,.39-1.44,5.51,5.51,0,0,1,.18-1c.07-.21.34-.52.56-.29ZM11.2,1.86a3.23,3.23,0,0,1-.42,1.27A20.7,20.7,0,0,1,8.45,6.24C7.07,7.81,6.47,8.5,8,11.58c.84,1.7,2.2,3.18,1.54,5.21a3.33,3.33,0,0,1-1.16,1.55,18.11,18.11,0,0,0-3-.75C4.07,17.41,1.08,17.43.66,19,.28,20.46,3.68,21,4.42,21c3.52,0,4.91-1,8-1.75a26.51,26.51,0,0,1,2.64-.5c.84-.1.77.56.77.56a22,22,0,0,0-3.67.65c2.12.67,4.93,1.37,7.16.88.69-.15,2.29-.71,2.29-1.59,0-1.49-2.93-1.77-3.94-1.69a15.85,15.85,0,0,0-3.48.73c-2.68-1.85.09-4.72,1.07-7,1.49-3.42.53-4.26-.93-5.55a13.36,13.36,0,0,1-2.16-2.28,4.82,4.82,0,0,1-.61-1.63c-.18-.87-.25-.73-.36.08Zm.21,6.21c-1,0-1.35,1.22-1.35,2s.39,2,1.35,2,1.35-1.22,1.35-2-.4-2-1.35-2Zm0,.62c-.53,0-.72,1-.72,1.38s.19,1.38.72,1.38.72-1,.72-1.38S11.94,8.69,11.41,8.69Z"/></g></g></svg>