<svg xmlns="http://www.w3.org/2000/svg" viewBox="0 0 21.12 21.97"><defs><style>.cls-1{fill:#254074;fill-rule:evenodd;}</style></defs><g id="Layer_2" data-name="Layer 2"><g id="Layer_1-2" data-name="Layer 1"><path class="cls-1" d="M.17,16.92A2.51,2.51,0,0,0,.33,19a2.06,2.06,0,0,0,.84.69,18.58,18.58,0,0,0,4.13,1.6,22.79,22.79,0,0,0,5.5.64,18.47,18.47,0,0,0,4.85-.65,17.66,17.66,0,0,0,4.61-2,1.83,1.83,0,0,0,.3-.27c.65-.74.94-2.19-.26-2.65-.85-.31-2.71-.61-6,.69l-.05,0h-.06a1.49,1.49,0,0,1-.94-.91A4.05,4.05,0,0,1,13,14.84a1.17,1.17,0,0,1,0-.27.61.61,0,0,1,0-.13c-.22-.18-.43-.38-.64-.57v0a5.22,5.22,0,0,0,.12,2.4,2.05,2.05,0,0,0,.63,1,1.74,1.74,0,0,0,1.05.36,3.88,3.88,0,0,0,1.37-.23,9.68,9.68,0,0,1,2.17-.47,7.48,7.48,0,0,1,2,.08c1.09.21.53,1.54-.14,1.93a18.1,18.1,0,0,1-9.13,2.43A17.75,17.75,0,0,1,1.45,19a1.59,1.59,0,0,1-.59-.7,1.49,1.49,0,0,1-.14-.57.68.68,0,0,1,.21-.52A.83.83,0,0,1,1.35,17a9.09,9.09,0,0,1,2.24-.08,9.9,9.9,0,0,1,2.34.47l.44.14c1,.35,1.42.49,1.87-.15A3.81,3.81,0,0,0,9,15.43a4.3,4.3,0,0,0-.21-1.58l0-.14.13-.06a5.53,5.53,0,0,0,.68-.4,2.48,2.48,0,0,0,.44-.41A4,4,0,0,0,10.5,11a15.76,15.76,0,0,0,0-1.69c0-.43-.12-.63-.21-.63C10,8.64,10,10,10,10.35A2.83,2.83,0,0,1,8.87,13a9.45,9.45,0,0,1-3.14,1A9.14,9.14,0,0,1,4.12,14c-.6,0-.82-.28-.83-.62a2,2,0,0,1,.35-1c.15-.29.37-.69.62-1.12s.55-.92.86-1.38A5.69,5.69,0,0,1,6.35,8.5a4.66,4.66,0,0,1,1.81-.73l.22,0c.73-.16,1.27-.28,1.6-1.1A1.35,1.35,0,0,0,10.09,6,.79.79,0,0,0,10,5.56a.76.76,0,0,0-.33-.27A1.34,1.34,0,0,1,9,4.7a2.69,2.69,0,0,1-.29-.84,3.9,3.9,0,0,1-.05-1A3.12,3.12,0,0,1,9,1.66,1.78,1.78,0,0,1,9.74.89a1.8,1.8,0,0,1,1.6,0,1.78,1.78,0,0,1,.74.77,3.12,3.12,0,0,1,.33,1.23,3.9,3.9,0,0,1-.05,1,1.82,1.82,0,0,1-.9,1.43.76.76,0,0,0-.33.27A.79.79,0,0,0,11,6a1.35,1.35,0,0,0,.11.59,1.57,1.57,0,0,0,1.51,1l.5.1c1.44.33,1.51.4,2.16,1a7.42,7.42,0,0,1,1.63,1.87c.24.36.46.73.66,1.06l.21.33a3.83,3.83,0,0,1,.71,1.51c0,.42-.19.72-.85.77a6.75,6.75,0,0,1-2.91-.3,5.85,5.85,0,0,1-2.53-1.29,3.12,3.12,0,0,1-.58-1.2,8.24,8.24,0,0,1-.24-2.07c0-.55-.16-.81-.28-.79s-.18.23-.22.64a4.78,4.78,0,0,0,.86,3.81,3.37,3.37,0,0,0,1.47,1,8.49,8.49,0,0,0,2.27.68,9.76,9.76,0,0,0,2.49.13c1-.14,1.19-.68,1.09-1.32a7.16,7.16,0,0,0-1-2.17,20.27,20.27,0,0,0-1.27-1.9,7.67,7.67,0,0,0-1.52-1.58h0a5,5,0,0,0-1.69-.63c-1-.24-1.87-.47-2-1.23l0-.13.12,0c1.12-.43,1.35-2,1.3-3A3,3,0,0,0,11.59.26a2.23,2.23,0,0,0-2.1,0A3,3,0,0,0,8,2.91a4.46,4.46,0,0,0,.32,2,1.77,1.77,0,0,0,1,1l.12,0v.13a1.11,1.11,0,0,1-.12.4C9.1,7,8.47,7.06,8,7.17c-2.58.59-3.31,2-4.44,4.1-.14.27-.28.55-.46.87a3.25,3.25,0,0,0-.42,1.38,1.06,1.06,0,0,0,.36.86c.43.36,1.62.26,2.39.2l.45,0a9.37,9.37,0,0,0,1.06-.21,11.5,11.5,0,0,0,1.26-.4,3.57,3.57,0,0,1,0,1.89,2.54,2.54,0,0,1-.85,1.29l-.08.06-.09,0a11.2,11.2,0,0,0-4.75-.91C1.85,16.25.53,16.32.17,16.92Z"/></g></g></svg>