<svg xmlns="http://www.w3.org/2000/svg" viewBox="0 0 22.26 20.17"><defs><style>.cls-1{fill:#254074;fill-rule:evenodd;}</style></defs><g id="Layer_2" data-name="Layer 2"><g id="Layer_1-2" data-name="Layer 1"><path class="cls-1" d="M.37,14.5h0l.4-.11.2.22a8.12,8.12,0,0,0,2.44-.75A7.07,7.07,0,0,0,4.7,13c.15-.13.41-.4.71-.68A14.91,14.91,0,0,0,6.5,11.2a21.86,21.86,0,0,1,1.21-4,1.59,1.59,0,0,1,1.52-.68c.7,0,.79-.39.76-1a1.78,1.78,0,0,1-1-.85,3.57,3.57,0,0,1-.43-1.83A4,4,0,0,1,9,1.16,2.77,2.77,0,0,1,9.68.3a1.07,1.07,0,0,1,1-.27.86.86,0,0,1,.29.11.68.68,0,0,1,.22-.09,1,1,0,0,1,.92.29,3,3,0,0,1,.57.82,4.68,4.68,0,0,1,.49,1.61,3.85,3.85,0,0,1-.43,1.89,1.67,1.67,0,0,1-1,.85,1.24,1.24,0,0,0,.14.55c.25.43.74.46,1.18.48a1.59,1.59,0,0,1,1.52.68,10.91,10.91,0,0,1,.75,2.26c.17.64.3,1.25.51,1.88.51.55,1.18,1.17,1.75,1.67a7.84,7.84,0,0,0,3.7,1.58l.2-.22.4.11h0c.3.12.46.29.3.57h0c-.18.32-.94.2-1.28.13a8,8,0,0,1-3.74-1.7,19,19,0,0,1-1.87-1.83,2.33,2.33,0,0,1-.28-.88c-.22-.87-.53-2.09-.74-2.74a1.32,1.32,0,0,0-.43-.7c-.54-.35-1.36,0-2-.47s-1-1.68-.24-2a1.19,1.19,0,0,0,.55-.54,3.1,3.1,0,0,0,.34-1.58,3.78,3.78,0,0,0-.42-1.34,1.4,1.4,0,0,0-2.52,0,3.33,3.33,0,0,0-.39,1.37,2.85,2.85,0,0,0,.34,1.5,1.32,1.32,0,0,0,.5.54c.24.13.4.21.49.44a1.31,1.31,0,0,1-.44,1.56c-.57.4-1.14.17-1.63.49a1.26,1.26,0,0,0-.43.7c-.21.65-.52,1.87-.74,2.74a1.77,1.77,0,0,1-.46,1c-.26.31-1.53,1.58-1.69,1.72a8.22,8.22,0,0,1-1.42.91c-.5.27-3.25,1.34-3.64.66h0c-.16-.28,0-.45.31-.57Zm8.22,5.64c.84-.07,1.82-.33,2.66-.32s1.68.25,2.46.32a2.44,2.44,0,0,0,1,0,.47.47,0,0,0,.31-.47,7.43,7.43,0,0,0,1-.3,25,25,0,0,0,3.81-2,1.62,1.62,0,0,0,.39-.33,1.19,1.19,0,0,0,.27-.74c0-.39-.31-1.11-.69-1.21a6.55,6.55,0,0,0-3,0,18.31,18.31,0,0,0-2.63.82,5.44,5.44,0,0,1-1.06-2,8.87,8.87,0,0,1,.48-3.06c.2-.65-.08-.85-.4-.95a16.38,16.38,0,0,0-.72,3.36c-.06,1.6.65,2,1.42,3.43a19.12,19.12,0,0,1,3-1,5.87,5.87,0,0,1,2.7,0,.81.81,0,0,1,.29.61.57.57,0,0,1-.12.35.73.73,0,0,1-.23.19,23.85,23.85,0,0,1-3.72,1.93,7.47,7.47,0,0,1-1.23.34c-.48.14,0,.5-.81.43s-1.68-.31-2.49-.32a25.68,25.68,0,0,0-2.73.32c-1.1.09-.34-.34-.81-.43a7.47,7.47,0,0,1-1.23-.34,18.07,18.07,0,0,1-2.22-1.06c-.51-.27-1-.57-1.5-.87a.73.73,0,0,1-.23-.19.65.65,0,0,1-.13-.35.86.86,0,0,1,.3-.61,5.83,5.83,0,0,1,2.69,0,19.57,19.57,0,0,1,3,1c.68-1.23,1.44-1.8,1.42-3.26a15.27,15.27,0,0,0-.72-3.53c-.32.1-.6.3-.4.95a8.87,8.87,0,0,1,.48,3.06,5.44,5.44,0,0,1-1.06,2,18.31,18.31,0,0,0-2.63-.82,6.55,6.55,0,0,0-3,0c-.38.1-.69.82-.69,1.21a1.19,1.19,0,0,0,.27.74,1.44,1.44,0,0,0,.39.33c.5.3,1,.6,1.52.88a17.77,17.77,0,0,0,2.29,1.09,7,7,0,0,0,1,.3.47.47,0,0,0,.31.47A2.43,2.43,0,0,0,8.59,20.14Z"/></g></g></svg>