<svg xmlns="http://www.w3.org/2000/svg" viewBox="0 0 20.05 19.66"><defs><style>.cls-1{fill:#254074;fill-rule:evenodd;}</style></defs><g id="Layer_2" data-name="Layer 2"><g id="Layer_1-2" data-name="Layer 1"><path class="cls-1" d="M6.63,15.85c-.5.13-1.42.33-2,.46l-.32.07h0c-.45.1-.9.2-1.36.33a10.12,10.12,0,0,0-1.28.43,2.17,2.17,0,0,0-.77.54.59.59,0,0,0-.2.4.33.33,0,0,0,.11.21,1.44,1.44,0,0,0,.33.19,4.47,4.47,0,0,0,1.25.36h0A9.79,9.79,0,0,0,4.13,19a11.45,11.45,0,0,0,2.07-.21c.7-.13,1.4-.31,2.06-.49.42-.11.72-.22,1.06-.33l.6-.2.11,0,.1,0c.28.08.45.14.61.2.33.11.63.22,1,.33.66.18,1.36.36,2.06.49a11.45,11.45,0,0,0,2.07.21,9.79,9.79,0,0,0,1.74-.13h0a4.47,4.47,0,0,0,1.25-.36,1.79,1.79,0,0,0,.34-.19.38.38,0,0,0,.1-.21.59.59,0,0,0-.2-.4,2.17,2.17,0,0,0-.77-.54A30.4,30.4,0,0,0,14.59,16l-1.53-.38-.38.09q-.39.08-.81.12a3.47,3.47,0,0,1-2.28.66,7.56,7.56,0,0,1-3-.68Zm-2.15-.23,1.18-.26A4.84,4.84,0,0,1,5.08,15a3.07,3.07,0,0,1-1-1.27l0-.07v-.07c0-.37,0-.9,0-1.41s0-.84.08-1.14.12-1,.24-1.58a6.59,6.59,0,0,1,.48-1.57A2.29,2.29,0,0,1,5.65,7h0a6.13,6.13,0,0,1,.92-.47c.26-.12.54-.22.82-.32l.3-.11a1.82,1.82,0,0,0,.9-.53,1.91,1.91,0,0,0,.17-1v0a.65.65,0,0,1-.61-.41,1.06,1.06,0,0,1-.05-.34A2.22,2.22,0,0,0,8,3.34a.91.91,0,0,1,0-.61.62.62,0,0,1,.08-.12l0-.19a2.53,2.53,0,0,1,0-.91A1.71,1.71,0,0,1,9.1.2a2.46,2.46,0,0,1,1-.2,2.31,2.31,0,0,1,1,.22A1.55,1.55,0,0,1,12,1.41a2.36,2.36,0,0,1,0,.38,3,3,0,0,1-.06.4l-.1.43.06.1h0a.74.74,0,0,1,0,.58,2.16,2.16,0,0,0-.1.48.82.82,0,0,1-.12.44.63.63,0,0,1-.4.29h-.06c0,.89.07,1.25,1.06,1.61l.29.11c.28.1.56.2.83.32a6.53,6.53,0,0,1,.91.47,2.21,2.21,0,0,1,.76.84,7.07,7.07,0,0,1,.49,1.57c.11.57.19,1.13.24,1.58s.06.74.08,1.18,0,1,0,1.31v.1l-.06.09,0,.09h0a1.1,1.1,0,0,1-.13.23l0,0a5.49,5.49,0,0,1-1,.88,5.24,5.24,0,0,1-.51.3l.58.14a30,30,0,0,1,3.89,1.13,3.05,3.05,0,0,1,1,.71,1.26,1.26,0,0,1,.38.95,1,1,0,0,1-.33.64,2.08,2.08,0,0,1-.51.32,5.63,5.63,0,0,1-1.44.41h0a11.08,11.08,0,0,1-1.85.14,12.6,12.6,0,0,1-2.19-.22c-.73-.14-1.44-.32-2.12-.5-.48-.14-.77-.24-1.1-.35L10,18.43l-.49.16c-.33.11-.62.21-1.1.35-.68.18-1.39.36-2.12.5a12.6,12.6,0,0,1-2.19.22,11.08,11.08,0,0,1-1.85-.14h0a5.63,5.63,0,0,1-1.44-.41,2.08,2.08,0,0,1-.51-.32A1,1,0,0,1,0,18.15a1.21,1.21,0,0,1,.37-.95,3.05,3.05,0,0,1,1-.71A10.53,10.53,0,0,1,2.77,16c.44-.12.92-.22,1.39-.33h0l.31-.07ZM6.63,9.76v.7c.08,0,.13.15.17.29h0v0h0a7.45,7.45,0,0,1,.3,1.84A7,7,0,0,1,7,14.43l0,.22.19.13a2.46,2.46,0,0,0,1.5.55,2.15,2.15,0,0,1,.57.09l0,0h0a2,2,0,0,0,.5.14,1,1,0,0,0,.71-.23c.08,0,.1-.1.13-.1l0-.7a1.18,1.18,0,0,0-.48.21c-.1.06-.1.16-.15.15h0a1.6,1.6,0,0,1-.35-.1h0l-.13-.05a2.76,2.76,0,0,0-.74-.12,1.76,1.76,0,0,1-.95-.29,9,9,0,0,0,.07-1.75,8.42,8.42,0,0,0-.34-2h0v0h0c-.11-.36-.24-.76-.82-.78Zm5.63,4.63.68-.14a5.85,5.85,0,0,1-.11-1.62,7.59,7.59,0,0,1,.37-1.8v0c0-.14.09-.29.17-.29v-.7c-.58,0-.71.42-.82.78v0a8.67,8.67,0,0,0-.41,2,6.45,6.45,0,0,0,.13,1.81ZM10.89,3.82c-.43-.08-.34.95-.34,1.11,0,1,.24,1.39,1.51,1.86l.31.11q.39.13.78.3a4.62,4.62,0,0,1,.8.41,1.5,1.5,0,0,1,.52.57,5.5,5.5,0,0,1,.43,1.4c.11.52.18,1.07.23,1.51s.06.73.09,1.14,0,.85,0,1.19l0,.08h0l0,.08a5.15,5.15,0,0,1-.88.76,4.49,4.49,0,0,1-1,.51,4.73,4.73,0,0,1-.76.21,7.73,7.73,0,0,1-.86.13h-.12l-.08.08a2.73,2.73,0,0,1-1.88.56,6.85,6.85,0,0,1-2.75-.66,8.94,8.94,0,0,1-1.35-.75,2.47,2.47,0,0,1-.76-.94c0-.35,0-.82,0-1.29s0-.81.08-1.11.13-1,.23-1.51a6.44,6.44,0,0,1,.43-1.4A1.58,1.58,0,0,1,6,7.61H6a4.72,4.72,0,0,1,.81-.41c.25-.11.52-.21.78-.3l.3-.11A2.3,2.3,0,0,0,9.17,6a2.6,2.6,0,0,0,.28-1,1.72,1.72,0,0,0-.08-.88c-.06-.12-.14-.25-.27-.26-.31,0-.42-1.87-.35-2.22A1.23,1.23,0,0,1,10.1.7a1.66,1.66,0,0,1,.7.15C11.91,1.37,11,3.84,10.89,3.82Z"/></g></g></svg>