<svg xmlns="http://www.w3.org/2000/svg" viewBox="0 0 19.13 18.84"><defs><style>.cls-1{fill:#254074;fill-rule:evenodd;}</style></defs><g id="Layer_2" data-name="Layer 2"><g id="Layer_1-2" data-name="Layer 1"><path class="cls-1" d="M1.07,17.44a4.42,4.42,0,0,1-.28.45c-.22.28-.45.4-.68.16s0-.71.12-1c0-.05,0-.11,0-.14a3.22,3.22,0,0,1,1-1.37,1.63,1.63,0,0,0,.21-.22s.69-1.17.72-1.21a8.58,8.58,0,0,0,1-2A14.54,14.54,0,0,1,4,10.66a16.36,16.36,0,0,0,.73-2.73,9.68,9.68,0,0,1,.4-1.18A1.6,1.6,0,0,1,5.88,6c.5-.25,2-.55,2.25-1,.18-.3-.07-.81-.12-.89L7.89,4c-.28-.29-.13-.67-.28-1a.75.75,0,0,1-.05-.42.5.5,0,0,1,.21-.34,1.2,1.2,0,0,1,0-.19A2.44,2.44,0,0,1,8.19.67,1.82,1.82,0,0,1,11,.67a2.37,2.37,0,0,1,.42,1.4,1.28,1.28,0,0,1,0,.19c.44.29.1.7.06.94s0,.84-.31.88a2.49,2.49,0,0,1-.2.58.55.55,0,0,0,.08.31,1,1,0,0,0,.55.39l.63.24a3.51,3.51,0,0,1,1.64.83,2.14,2.14,0,0,1,.2.32,9.37,9.37,0,0,1,.4,1.19,15,15,0,0,0,.73,2.72,14.54,14.54,0,0,1,.83,1.39,9.77,9.77,0,0,0,1.82,3.56,3.74,3.74,0,0,1,.81,1,2.5,2.5,0,0,1,.17.4s0,.08,0,.13.06.14.07.17h0c.15.36.25.62.05.84-.4.42-.79-.3-1-.6l.27-.16a4,4,0,0,0-.2-.48,3.63,3.63,0,0,0-.69-.82,10.35,10.35,0,0,1-2-3.8c-.15-.39-.59-.89-.81-1.32a15.6,15.6,0,0,1-.77-2.83A8.46,8.46,0,0,0,13.53,7a2.36,2.36,0,0,0-.13-.23c-.26-.33-1-.49-1.38-.62L11.4,6a1.64,1.64,0,0,1-.87-.66,1.18,1.18,0,0,1-.16-.8,2.32,2.32,0,0,0,.16-.36,2.66,2.66,0,0,0,.08-.33l0-.24c.29.09.38-.74.36-.81,0-.24-.24-.17-.23-.25a.89.89,0,0,1,0-.15,1.64,1.64,0,0,0,0-.26,1.83,1.83,0,0,0-.3-1A1.22,1.22,0,0,0,8.69,1a1.91,1.91,0,0,0-.3,1c0,.17,0,.27,0,.41a.24.24,0,0,0-.2.12c0,.06-.05.91.33.94l0,.24a2.66,2.66,0,0,0,.08.33,3.92,3.92,0,0,0,.16.36,1.18,1.18,0,0,1-.16.8c-.46.77-1.77.88-2.51,1.25a1,1,0,0,0-.49.5,8.46,8.46,0,0,0-.36,1.07,16.22,16.22,0,0,1-.77,2.83c-.21.43-.66.93-.81,1.32a8.7,8.7,0,0,1-1,2.17,7.35,7.35,0,0,1-1,1.54,2.7,2.7,0,0,0-.88,1.29v0l.27.15ZM12.48,10.7a4.83,4.83,0,0,0,.08-1.21c-.17,0-.48.39-.68,1a7.7,7.7,0,0,0-.27,1.37c-.06.59.38,1.45.37,2.15v.21l.19.08c.71.3,3.31,1.62,3.78,1.86s1,.77.7,1.34a1,1,0,0,1-.43.47v0a5.37,5.37,0,0,1-2.49,0,15.6,15.6,0,0,1-2.83-.77,2.63,2.63,0,0,0-2.55,0A15.6,15.6,0,0,1,5.51,18c-.79.13-2.49.47-2.93-.47-.27-.57.22-1.1.7-1.34s3.08-1.56,3.78-1.86l.19-.08v-.21c0-.7.44-1.56.37-2.15a7.7,7.7,0,0,0-.27-1.37c-.2-.65-.51-1-.68-1a5.36,5.36,0,0,0,.08,1.21A7.18,7.18,0,0,1,7,12c0,.3-.35,1.46-.37,1.89-.91.41-3.19,1.57-3.63,1.79a1.65,1.65,0,0,0-1,2.17,1.81,1.81,0,0,0,1.41,1,6.7,6.7,0,0,0,2-.08A18.61,18.61,0,0,0,8,18.05c2-.68,1.25-.68,3.27,0a18.61,18.61,0,0,0,2.59.67,6.7,6.7,0,0,0,2,.08,1.81,1.81,0,0,0,1.41-1,1.64,1.64,0,0,0-1-2.17c-.44-.22-2.71-1.38-3.63-1.79,0-.43-.4-1.59-.37-1.89A8.24,8.24,0,0,1,12.48,10.7Z"/></g></g></svg>