<svg xmlns="http://www.w3.org/2000/svg" viewBox="0 0 18.27 16.28"><defs><style>.cls-1{fill:#254074;fill-rule:evenodd;}</style></defs><g id="Layer_2" data-name="Layer 2"><g id="Layer_1-2" data-name="Layer 1"><path class="cls-1" d="M9.22,0a1.07,1.07,0,0,1,.88.57,2.36,2.36,0,0,1,.3,1.17c0,.69-.35,1.75-1.18,1.75S8,2.43,8,1.74A2.26,2.26,0,0,1,8.34.57,1,1,0,0,1,9.22,0Zm4.5,11.47c-3.35-.23-3.74-3.11-4-5.2-.14-1-.24-1.8-.58-1.8s-.6.86-.74,1.94c-.26,2.05-.6,4.75-3.81,5A10.66,10.66,0,0,1,7,13.16a8.93,8.93,0,0,0,1.42,1.13c1.83-.84,3.47-2.07,5.31-2.82ZM16.43,11c1.55.24,2.43,1.64,1.38,3a6.8,6.8,0,0,1-4.09,2,8,8,0,0,1-4-.28,8,8,0,0,1-4.55.44C3.43,15.89.29,14.74,0,12.71a1.68,1.68,0,0,1,1.47-1.79,2.73,2.73,0,0,1-.8-.59,2,2,0,0,1-.51-.94C.08,9,.11,7.94.83,8.26a1.94,1.94,0,0,1,.3.2c.63.52.37,1.63-.25,1.13a3.56,3.56,0,0,0,2.35,1.19c3.92.41,4.27-2.38,4.53-4.45.18-1.39.32-2.5,1.36-2.49.88,0,1,1,1.2,2.35.26,1.92.62,4.57,3.65,4.67a3.35,3.35,0,0,0,3.19-1.35c-.92.43-.47-.94.06-1.2a.47.47,0,0,1,.56,0A.76.76,0,0,1,18,9a2,2,0,0,1-.3.8A3.12,3.12,0,0,1,16.43,11ZM9,14.7c1.82-.86,5-3.23,7.08-3.12,1.1.06,2,1,1.22,2a6.25,6.25,0,0,1-3.69,1.76A6.77,6.77,0,0,1,9,14.7Zm-.08.67a8.61,8.61,0,0,1-3.68.16C3.84,15.32.86,14.3.63,12.63c-.17-1.33,1.94-1.25,2.77-1a8.4,8.4,0,0,1,3.18,2,13.31,13.31,0,0,0,2.35,1.73ZM9.56.89C9.46.73,9.34.63,9.22.63S9,.73,8.88.89a1.7,1.7,0,0,0-.21.85c0,.3.14,1.12.55,1.12s.55-.82.55-1.12A1.7,1.7,0,0,0,9.56.89Z"/></g></g></svg>