<svg xmlns="http://www.w3.org/2000/svg" viewBox="0 0 229.97 62.14"><defs><style>.cls-1{isolation:isolate;}.cls-2{fill:none;stroke:#262424;stroke-miterlimit:10;}.cls-3{fill:#262424;}</style></defs><g id="Layer_2" data-name="Layer 2"><g id="Layer_1-2" data-name="Layer 1"><g id="YOGA_HEALING_CENTER" data-name="YOGA HEALING CENTER" class="cls-1"><g class="cls-1"><path class="cls-2" d="M6.22,52.32l2.64-7.46h2.86L7.56,55.41v6H4.9v-6L.73,44.86H3.6Z"/><path class="cls-2" d="M23.85,53.51a12.62,12.62,0,0,1-.66,4.28,6.34,6.34,0,0,1-1.9,2.85,4.49,4.49,0,0,1-5.64,0,6.4,6.4,0,0,1-1.92-2.83,12.17,12.17,0,0,1-.68-4.22v-.82a12.57,12.57,0,0,1,.67-4.3,6.32,6.32,0,0,1,1.91-2.85,4.48,4.48,0,0,1,5.64,0,6.31,6.31,0,0,1,1.9,2.85,12.54,12.54,0,0,1,.68,4.29Zm-2.65-.75a8.78,8.78,0,0,0-.71-4,2.21,2.21,0,0,0-4.07,0,8.54,8.54,0,0,0-.73,3.91v.81a8.72,8.72,0,0,0,.72,3.93,2.24,2.24,0,0,0,2.06,1.4,2.2,2.2,0,0,0,2-1.35,8.76,8.76,0,0,0,.71-3.92Z"/><path class="cls-2" d="M36.59,59.32a4.74,4.74,0,0,1-2,1.71,6.69,6.69,0,0,1-2.86.61,4.67,4.67,0,0,1-2.88-.94A5.94,5.94,0,0,1,26.93,58a12.07,12.07,0,0,1-.69-4.2V52.66a12.75,12.75,0,0,1,.64-4.29,6,6,0,0,1,1.84-2.78,4.43,4.43,0,0,1,2.83-1A4.54,4.54,0,0,1,35.08,46a6.85,6.85,0,0,1,1.51,4.09H34A3.68,3.68,0,0,0,33.27,48a2.1,2.1,0,0,0-1.64-.66,2.2,2.2,0,0,0-2,1.31,8.69,8.69,0,0,0-.71,3.89v1.05a8.2,8.2,0,0,0,.76,3.94,2.75,2.75,0,0,0,4.32.51V55.23H31.6V52.71h5Z"/><path class="cls-2" d="M46.67,58H42.09l-.88,3.41H38.44l4.72-16.55h2.42l4.75,16.55H47.55Zm-3.88-2.76H46L44.37,49Z"/><path class="cls-2" d="M57.05,57a4.62,4.62,0,0,1,.49-2.12,8,8,0,0,1,1.81-2.17,11.92,11.92,0,0,1-.89-1.86A5.09,5.09,0,0,1,58.14,49a5,5,0,0,1,.93-3.14,3,3,0,0,1,2.52-1.21,2.89,2.89,0,0,1,2.33,1.1,4.19,4.19,0,0,1,.92,2.75A4.76,4.76,0,0,1,63.3,52l-1,.93,2.18,3.32A7.82,7.82,0,0,0,65,53.3h2.14A10.48,10.48,0,0,1,66,58.53l1.9,2.88H65.07l-.65-1a4.79,4.79,0,0,1-3.23,1.21,3.8,3.8,0,0,1-3-1.29A4.93,4.93,0,0,1,57.05,57Zm4.27,2A2.67,2.67,0,0,0,63,58.33l-2.5-3.76-.18.17a2.92,2.92,0,0,0-.78,2,2.48,2.48,0,0,0,.49,1.6A1.53,1.53,0,0,0,61.32,59Zm-.93-10.05a4.56,4.56,0,0,0,.77,2.15l.67-.58a2.73,2.73,0,0,0,.71-.84,2.28,2.28,0,0,0,.2-1,1.55,1.55,0,0,0-.33-1,1,1,0,0,0-.82-.42,1,1,0,0,0-.87.45A2,2,0,0,0,60.39,48.94Z"/><path class="cls-2" d="M85.64,61.41H83V54.32h-5.1v7.09H75.32V44.86h2.61v6.71H83V44.86h2.61Z"/><path class="cls-2" d="M96.36,54.24h-5v4.43h5.89v2.74h-8.5V44.86h8.48v2.76H91.34v4h5Z"/><path class="cls-2" d="M106.73,58h-4.58l-.88,3.41H98.5l4.72-16.55h2.42l4.75,16.55h-2.78Zm-3.88-2.76H106L104.43,49Z"/><path class="cls-2" d="M115,58.67h5.55v2.74h-8.17V44.86H115Z"/><path class="cls-2" d="M125.62,61.41H123V44.86h2.62Z"/><path class="cls-2" d="M139.16,61.41h-2.62l-5.08-10.89V61.41h-2.62V44.86h2.62l5.09,10.91V44.86h2.61Z"/><path class="cls-2" d="M152.28,59.32a4.74,4.74,0,0,1-2,1.71,6.68,6.68,0,0,1-2.85.61,4.7,4.7,0,0,1-2.89-.94A5.94,5.94,0,0,1,142.62,58a12.07,12.07,0,0,1-.69-4.2V52.66a12.75,12.75,0,0,1,.64-4.29,6,6,0,0,1,1.85-2.78,4.38,4.38,0,0,1,2.82-1,4.54,4.54,0,0,1,3.53,1.4,6.85,6.85,0,0,1,1.51,4.09h-2.54A3.75,3.75,0,0,0,149,48a2.08,2.08,0,0,0-1.64-.66,2.21,2.21,0,0,0-2,1.31,8.57,8.57,0,0,0-.7,3.89v1.05a8.22,8.22,0,0,0,.75,3.94,2.44,2.44,0,0,0,2.23,1.33,2.48,2.48,0,0,0,2.1-.82V55.23h-2.38V52.71h5Z"/><path class="cls-2" d="M170.4,55.9a6.67,6.67,0,0,1-1.51,4.2,4.56,4.56,0,0,1-3.59,1.54,4.36,4.36,0,0,1-3.84-2.15,10.68,10.68,0,0,1-1.4-5.88v-1a12.62,12.62,0,0,1,.65-4.21,6.13,6.13,0,0,1,1.84-2.79,4.28,4.28,0,0,1,2.78-1,4.44,4.44,0,0,1,3.54,1.54,7.19,7.19,0,0,1,1.55,4.3h-2.61a4.07,4.07,0,0,0-.69-2.32,2.17,2.17,0,0,0-1.79-.72,2.07,2.07,0,0,0-2,1.22,8.41,8.41,0,0,0-.67,3.79v1.25a9.28,9.28,0,0,0,.62,3.92,2.06,2.06,0,0,0,2,1.24,2.23,2.23,0,0,0,1.81-.72,3.9,3.9,0,0,0,.68-2.23Z"/><path class="cls-2" d="M180.55,54.24h-5v4.43h5.88v2.74h-8.5V44.86h8.49v2.76h-5.87v4h5Z"/><path class="cls-2" d="M194.08,61.41h-2.62l-5.09-10.89V61.41h-2.61V44.86h2.61l5.1,10.91V44.86h2.61Z"/><path class="cls-2" d="M206.46,47.62h-3.89V61.41H200V47.62h-3.84V44.86h10.34Z"/><path class="cls-2" d="M216.38,54.24h-5v4.43h5.89v2.74h-8.5V44.86h8.48v2.76h-5.87v4h5Z"/><path class="cls-2" d="M224.28,55.35H222.2v6.06h-2.61V44.86h4.71a4.48,4.48,0,0,1,3.47,1.31A5.21,5.21,0,0,1,229,49.86a6.35,6.35,0,0,1-.56,2.82,4.32,4.32,0,0,1-1.71,1.81l2.75,6.76v.16h-2.81Zm-2.08-2.76h2.11a1.86,1.86,0,0,0,1.53-.66,2.72,2.72,0,0,0,.54-1.8,3,3,0,0,0-.51-1.84,1.85,1.85,0,0,0-1.57-.67h-2.1Z"/></g></g><g id="fabula" class="cls-1"><g class="cls-1"><path class="cls-3" d="M6.06,39.51V13.9H2.87V11.32H6.06V8.39a19.56,19.56,0,0,1,.31-3.71A4.49,4.49,0,0,1,7.64,2.15a4.21,4.21,0,0,1,3-.93A11.2,11.2,0,0,1,12,1.29a6.43,6.43,0,0,1,1.23.27V4.2A6.14,6.14,0,0,0,12.3,4,6,6,0,0,0,11.42,4,1.68,1.68,0,0,0,9.63,5a9.5,9.5,0,0,0-.37,3.1v3.27h4V13.9h-4V39.51Z"/><path class="cls-3" d="M20.4,40a4.23,4.23,0,0,1-2.63-.85A5.64,5.64,0,0,1,16,36.81a7.77,7.77,0,0,1-.63-3.15A11,11,0,0,1,15.93,30a7.34,7.34,0,0,1,1.73-2.71A16.23,16.23,0,0,1,20.77,25c1.28-.76,2.84-1.62,4.69-2.56v-2a23.78,23.78,0,0,0-.28-4.07,3.92,3.92,0,0,0-.95-2.12,2.61,2.61,0,0,0-1.88-.64,3.52,3.52,0,0,0-1.77.44,3.1,3.1,0,0,0-1.26,1.49,7.33,7.33,0,0,0-.47,2.9v1l-3.11-.05c0-2.86.57-5,1.62-6.37s2.77-2.07,5.16-2.07,3.82.75,4.73,2.27,1.36,3.86,1.36,7V33.9c0,.49,0,1.12,0,1.88s.06,1.49.09,2.17.06,1.21.09,1.56H26c-.06-.61-.15-1.31-.26-2.07s-.19-1.37-.22-1.83a7.11,7.11,0,0,1-1.83,3A4.52,4.52,0,0,1,20.4,40Zm1-3a2.93,2.93,0,0,0,1.72-.54,6.79,6.79,0,0,0,1.39-1.29,7.3,7.3,0,0,0,.95-1.54V24.78q-1.86,1.08-3.18,1.95a14.26,14.26,0,0,0-2.14,1.71,5.32,5.32,0,0,0-1.21,1.88,7.31,7.31,0,0,0-.38,2.46,4.72,4.72,0,0,0,.86,3.2A2.64,2.64,0,0,0,21.4,36.93Z"/><path class="cls-3" d="M40.88,40a4.07,4.07,0,0,1-2.62-.88,11.18,11.18,0,0,1-1.83-1.8v2.24H33.27V0h3.16V13.66a7.89,7.89,0,0,1,1.9-1.93,4.7,4.7,0,0,1,2.85-.85,4.42,4.42,0,0,1,2.94.95,6,6,0,0,1,1.72,2.56A14.71,14.71,0,0,1,46.67,18a39.2,39.2,0,0,1,.21,4.1v5.95a31.83,31.83,0,0,1-.54,6.27,8.92,8.92,0,0,1-1.83,4.14A4.55,4.55,0,0,1,40.88,40Zm-.56-2.83a2.49,2.49,0,0,0,2.18-1,6.85,6.85,0,0,0,1-3.05,42.71,42.71,0,0,0,.23-4.9v-6a37.46,37.46,0,0,0-.23-4.61,6.31,6.31,0,0,0-1-2.86,2.58,2.58,0,0,0-2.23-1,3.66,3.66,0,0,0-2.18.73,10.32,10.32,0,0,0-1.66,1.46V35.07a6.53,6.53,0,0,0,1.68,1.44A4.13,4.13,0,0,0,40.32,37.12Z"/><path class="cls-3" d="M54.87,40a3.13,3.13,0,0,1-2.11-.73,4.51,4.51,0,0,1-1.32-2A10,10,0,0,1,51,34V11.32h3.2V33.17a6,6,0,0,0,.58,3.08,2,2,0,0,0,1.8.87,4,4,0,0,0,2.26-.78,9.76,9.76,0,0,0,2.14-2v-23h3.16V39.51H61V36.39A10.94,10.94,0,0,1,58.2,39,6,6,0,0,1,54.87,40Z"/><path class="cls-3" d="M69.43,39.51V0h3.15V39.51Z"/><path class="cls-3" d="M82,40a4.19,4.19,0,0,1-2.63-.85,5.55,5.55,0,0,1-1.75-2.29A7.77,7.77,0,0,1,77,33.66,11,11,0,0,1,77.57,30a7.34,7.34,0,0,1,1.73-2.71A16.23,16.23,0,0,1,82.41,25c1.28-.76,2.84-1.62,4.69-2.56v-2a22.64,22.64,0,0,0-.29-4.07,3.78,3.78,0,0,0-1-2.12A2.58,2.58,0,0,0,84,13.56a3.57,3.57,0,0,0-1.77.44A3.14,3.14,0,0,0,81,15.49a7.15,7.15,0,0,0-.47,2.9v1l-3.11-.05c0-2.86.56-5,1.62-6.37s2.77-2.07,5.16-2.07,3.82.75,4.73,2.27,1.36,3.86,1.36,7V33.9c0,.49,0,1.12,0,1.88s.06,1.49.09,2.17.06,1.21.08,1.56h-2.8c-.06-.61-.15-1.31-.26-2.07s-.19-1.37-.22-1.83a7.21,7.21,0,0,1-1.83,3A4.52,4.52,0,0,1,82,40Zm1-3a3,3,0,0,0,1.73-.54,6.49,6.49,0,0,0,1.38-1.29,7.36,7.36,0,0,0,1-1.54V24.78q-1.86,1.08-3.18,1.95a14.26,14.26,0,0,0-2.14,1.71,5.19,5.19,0,0,0-1.21,1.88,7.06,7.06,0,0,0-.39,2.46,4.71,4.71,0,0,0,.87,3.2A2.62,2.62,0,0,0,83,36.93Z"/></g></g></g></g></svg>